<?xml version="1.0" encoding="UTF-8" standalone="no"?>
<!DOCTYPE svg PUBLIC "-//W3C//DTD SVG 1.1//EN"
 "http://www.w3.org/Graphics/SVG/1.1/DTD/svg11.dtd">
<!-- Generated by graphviz version 2.40.1 (20161225.0304)
 -->
<!-- Title: contact Pages: 1 -->
<svg width="212pt" height="216pt"
 viewBox="0.00 0.00 212.00 216.00" xmlns="http://www.w3.org/2000/svg" xmlns:xlink="http://www.w3.org/1999/xlink">
<g id="graph0" class="graph" transform="scale(1 1) rotate(0) translate(4 212)">
<title>contact</title>
<polygon fill="#ffffff" stroke="transparent" points="-4,4 -4,-212 208,-212 208,4 -4,4"/>
<!-- contact -->
<g id="node1" class="node">
<title>contact</title>
<g id="a_node1"><a xlink:href="../../tables/contact.html" xlink:title="contact" target="_top">
<polygon fill="#ffffff" stroke="transparent" points="8,-4 8,-204 196,-204 196,-4 8,-4"/>
<polygon fill="#f5f5f5" stroke="transparent" points="10,-179 10,-202 194,-202 194,-179 10,-179"/>
<polygon fill="none" stroke="#000000" points="10,-179 10,-202 194,-202 194,-179 10,-179"/>
<text text-anchor="start" x="15" y="-188.1" font-family="Helvetica,sans-Serif" font-weight="bold" font-size="11.00" fill="#000000">contact</text>
<text text-anchor="start" x="159.0437" y="-187.1" font-family="Helvetica,sans-Serif" font-size="11.00" fill="#000000">[table]</text>
<polygon fill="none" stroke="#000000" points="10,-157 10,-179 83,-179 83,-157 10,-157"/>
<image xlink:href="../../images/primaryKeys.png" width="11px" height="12px" preserveAspectRatio="xMinYMin meet" x="15" y="-174"/>
<text text-anchor="start" x="30" y="-164.1" font-family="Helvetica,sans-Serif" font-size="11.00" fill="#000000">id</text>
<polygon fill="none" stroke="#000000" points="83,-157 83,-179 194,-179 194,-157 83,-157"/>
<text text-anchor="start" x="86" y="-164.7" font-family="Helvetica,sans-Serif" font-size="11.00" fill="#000000">int[10]</text>
<polygon fill="none" stroke="#000000" points="10,-135 10,-157 83,-157 83,-135 10,-135"/>
<text text-anchor="start" x="30" y="-142.1" font-family="Helvetica,sans-Serif" font-size="11.00" fill="#000000">nom</text>
<polygon fill="none" stroke="#000000" points="83,-135 83,-157 194,-157 194,-135 83,-135"/>
<text text-anchor="start" x="86" y="-142.7" font-family="Helvetica,sans-Serif" font-size="11.00" fill="#000000">varchar[20]</text>
<polygon fill="none" stroke="#000000" points="10,-113 10,-135 83,-135 83,-113 10,-113"/>
<text text-anchor="start" x="30" y="-120.1" font-family="Helvetica,sans-Serif" font-size="11.00" fill="#000000">prenom</text>
<polygon fill="none" stroke="#000000" points="83,-113 83,-135 194,-135 194,-113 83,-113"/>
<text text-anchor="start" x="86" y="-120.7" font-family="Helvetica,sans-Serif" font-size="11.00" fill="#000000">varchar[20]</text>
<polygon fill="none" stroke="#000000" points="10,-91 10,-113 83,-113 83,-91 10,-91"/>
<text text-anchor="start" x="30" y="-98.1" font-family="Helvetica,sans-Serif" font-size="11.00" fill="#000000">email</text>
<polygon fill="none" stroke="#000000" points="83,-91 83,-113 194,-113 194,-91 83,-91"/>
<text text-anchor="start" x="86" y="-98.7" font-family="Helvetica,sans-Serif" font-size="11.00" fill="#000000">varchar[70]</text>
<polygon fill="none" stroke="#000000" points="10,-69 10,-91 83,-91 83,-69 10,-69"/>
<text text-anchor="start" x="30" y="-76.1" font-family="Helvetica,sans-Serif" font-size="11.00" fill="#000000">objet</text>
<polygon fill="none" stroke="#000000" points="83,-69 83,-91 194,-91 194,-69 83,-69"/>
<text text-anchor="start" x="86" y="-76.7" font-family="Helvetica,sans-Serif" font-size="11.00" fill="#000000">varchar[255]</text>
<polygon fill="none" stroke="#000000" points="10,-47 10,-69 83,-69 83,-47 10,-47"/>
<text text-anchor="start" x="30" y="-54.1" font-family="Helvetica,sans-Serif" font-size="11.00" fill="#000000">contenu</text>
<polygon fill="none" stroke="#000000" points="83,-47 83,-69 194,-69 194,-47 83,-47"/>
<text text-anchor="start" x="85.6115" y="-54.7" font-family="Helvetica,sans-Serif" font-size="11.00" fill="#000000">longtext[2147483647]</text>
<polygon fill="none" stroke="#000000" points="10,-25 10,-47 83,-47 83,-25 10,-25"/>
<text text-anchor="start" x="30" y="-32.1" font-family="Helvetica,sans-Serif" font-size="11.00" fill="#000000">create_at</text>
<polygon fill="none" stroke="#000000" points="83,-25 83,-47 194,-47 194,-25 83,-25"/>
<text text-anchor="start" x="86" y="-32.7" font-family="Helvetica,sans-Serif" font-size="11.00" fill="#000000">datetime[19]</text>
<polygon fill="#ffffff" stroke="transparent" points="10,-6 10,-25 38,-25 38,-6 10,-6"/>
<polygon fill="none" stroke="#000000" points="10,-6 10,-25 38,-25 38,-6 10,-6"/>
<text text-anchor="start" x="13" y="-12.1" font-family="Helvetica,sans-Serif" font-size="11.00" fill="#000000">&lt; 0</text>
<polygon fill="#ffffff" stroke="transparent" points="38,-6 38,-25 83,-25 83,-6 38,-6"/>
<polygon fill="none" stroke="#000000" points="38,-6 38,-25 83,-25 83,-6 38,-6"/>
<text text-anchor="start" x="47.6105" y="-12.1" font-family="Helvetica,sans-Serif" font-size="11.00" fill="#000000">3 rows</text>
<polygon fill="#ffffff" stroke="transparent" points="83,-6 83,-25 194,-25 194,-6 83,-6"/>
<polygon fill="none" stroke="#000000" points="83,-6 83,-25 194,-25 194,-6 83,-6"/>
<text text-anchor="start" x="175.4053" y="-12.1" font-family="Helvetica,sans-Serif" font-size="11.00" fill="#000000">0 &gt;</text>
<polygon fill="none" stroke="#000000" stroke-width="2" points="9,-5 9,-203 195,-203 195,-5 9,-5"/>
</a>
</g>
</g>
</g>
</svg>
